<svg width="1600" height="469" viewBox="0 0 1600 469" fill="none" xmlns="http://www.w3.org/2000/svg">
<g clip-path="url(#clip0_4_12)">
<path d="M688.183 63.005L858.5 105L848.5 112L690 74L688.183 63.005Z" fill="#E0E32F"/>
<path d="M887.5 68.763L906.804 68.763L906.814 80.6844L874 80.6844L887.5 68.763Z" fill="#E32F2F"/>
<rect x="692.003" y="140.013" width="26.9931" height="7.99849" fill="#E32F2F"/>
<path d="M692.034 245L924.478 245L924.478 253.135L808 255.5L692.034 253.662L692.034 245Z" fill="#E32F2F"/>
<path d="M740 170.5L907.757 141.5L907.757 150.769L735 180.5L740 170.5Z" fill="#E0E32F"/>
<path d="M-1.5 234.5L184.137 238.234L183.977 246.232L3.01299 242.619L-1.5 234.5Z" fill="#E0E32F"/>
<rect x="180" y="212" width="4" height="27" fill="#E32F2F"/>
<rect x="688" y="62" width="4" height="346" fill="#E32F2F"/>
<rect x="907" y="4" width="4" height="212" fill="#E32F2F"/>
<path d="M201.323 195L420.209 202.067L420.209 214.5L201 204.995L201.323 195Z" fill="#E0E32F"/>
<rect x="318" y="170" width="65" height="28" fill="#E32F2F"/>
<rect x="403" y="397" width="61" height="27" fill="#E32F2F"/>
<rect x="494" y="396" width="61" height="28" fill="#E32F2F"/>
<rect x="463" y="418" width="31" height="6" fill="#E32F2F"/>
<rect x="555" y="418" width="21" height="6" fill="#E32F2F"/>
<rect x="576" y="397" width="83" height="27" fill="#E32F2F"/>
<rect x="576" y="374" width="29" height="26" fill="#E32F2F"/>
<rect x="949" y="322" width="24" height="105" fill="#E32F2F"/>
<rect x="1198" y="405" width="30" height="32" fill="#E32F2F"/>
<rect x="1227" y="373" width="35" height="32" fill="#E32F2F"/>
<rect x="1260" y="341" width="35" height="34" fill="#E32F2F"/>
<rect x="1291" y="330" width="102" height="40" fill="#E32F2F"/>
<rect x="1400" y="248" width="71" height="33" fill="#E32F2F"/>
<path d="M963 315L960.776 320.5L1163.22 436.058L1165.99 431.442L1035 350L963 315Z" fill="#E0E32F"/>
<rect x="623" y="385" width="10" height="12" fill="#E32F2F"/>
<rect x="638" y="378" width="12" height="19" fill="#49E32F"/>
<rect x="341" y="165" width="26" height="5" fill="#32B5FF"/>
<rect x="910" y="253" width="4" height="162" fill="#E32F2F"/>
</g>
<defs>
<clipPath id="clip0_4_12">
<rect width="1600" height="469" fill="white"/>
</clipPath>
</defs>
</svg>
