<svg width="4907" height="720" viewBox="0 0 4907 720" fill="none" xmlns="http://www.w3.org/2000/svg">
<g clip-path="url(#clip0_4_12)">
<path d="M1054.03 94.2972L1314.67 158.564L1299.37 169.276L1056.81 111.123L1054.03 94.2972Z" fill="#E0E32F"/>
<path d="M1364.16 107.104L1401 107.098L1401.01 125.342L1338.39 125.353L1364.16 107.104Z" fill="#E32F2F"/>
<rect x="1060" y="212" width="41" height="12" fill="#E32F2F"/>
<path d="M1059.92 372.81L1415.64 372.81L1415.64 385.26L1237.39 388.879L1059.92 386.066L1059.92 372.81Z" fill="#E32F2F"/>
<path d="M1133 263.5L1400.55 208L1400.55 226.841L1126 279L1133 263.5Z" fill="#E0E32F"/>
<path d="M-7.75476 360L276.331 365.714L276.087 377.954L-0.84839 372.425L-7.75476 360Z" fill="#E0E32F"/>
<rect x="276" y="322" width="5" height="45" fill="#E32F2F"/>
<rect x="1054" y="93" width="6" height="529" fill="#E32F2F"/>
<rect x="1397" y="6" width="6" height="270" fill="#E32F2F"/>
<path d="M308.614 299L643.582 309.815L643.582 328.841L308.12 314.295L308.614 299Z" fill="#E0E32F"/>
<rect x="488" y="259" width="99" height="46" fill="#E32F2F"/>
<rect y="299" width="57" height="10" fill="#E32F2F"/>
<rect x="620" y="612" width="93" height="42" fill="#E32F2F"/>
<rect x="759" y="611" width="93" height="43" fill="#E32F2F"/>
<rect x="711" y="642" width="48" height="9" fill="#E32F2F"/>
<rect x="852" y="642" width="32" height="9" fill="#E32F2F"/>
<rect x="884" y="612" width="127" height="42" fill="#E32F2F"/>
<rect x="884" y="577" width="45" height="40" fill="#E32F2F"/>
<rect x="1453" y="491" width="37" height="160" fill="#E32F2F"/>
<rect x="1838" y="623" width="46" height="49" fill="#E32F2F"/>
<rect x="1882" y="574" width="53" height="49" fill="#E32F2F"/>
<rect x="1933" y="525" width="54" height="52" fill="#E32F2F"/>
<rect x="1982" y="512" width="151" height="61" fill="#E32F2F"/>
<path d="M1474.59 481.934L1471.19 490.35L1780.99 667.193L1785.24 660.129L1584.77 535.495L1474.59 481.934Z" fill="#E0E32F"/>
<rect x="956" y="594" width="16" height="18" fill="#E32F2F"/>
<rect x="979" y="583" width="19" height="29" fill="#49E32F"/>
<rect x="522" y="251" width="40" height="8" fill="#32B5FF"/>
<rect x="1393" y="385" width="7" height="248" fill="#E32F2F"/>
<path d="M966.484 59.4409L1040.75 6L1102 42.6452V49.5161C1102 49.5161 1071.38 19.7419 1040.75 25.086C1015.75 29.4481 1001.7 34.2473 987.156 66.3118C972.609 98.3763 966.484 432 966.484 432H955L966.484 59.4409Z" fill="#C4C4C4"/>
<rect x="1009" y="552" width="11" height="58" fill="#C4C4C4"/>
<path d="M1009.56 551.859L1049.42 521.253L1055.42 530.132L1016.79 556.197L1009.56 551.859Z" fill="#C4C4C4"/>
<rect x="3442" y="611" width="60" height="53" fill="#E32F2F"/>
<rect x="3574" y="528" width="133" height="52" fill="#E32F2F"/>
<rect x="3861" y="44" width="383" height="13" fill="#E32F2F"/>
<rect x="3499" y="596" width="27" height="15" fill="#E32F2F"/>
<rect x="3511" y="590" width="49" height="8" fill="#E32F2F"/>
<rect x="3526" y="578" width="62" height="12" fill="#E32F2F"/>
<path fill-rule="evenodd" clip-rule="evenodd" d="M2972 599C3012.03 640.221 3076.78 667 3149.85 667C3222.91 667 3287.66 640.221 3327.7 599H3298C3296.52 600.19 3295.01 601.365 3293.47 602.524C3257.42 629.64 3206.71 647 3149.85 647C3092.99 647 3042.28 629.64 3006.23 602.524C3004.69 601.365 3003.18 600.19 3001.7 599H2972Z" fill="#E32F2F"/>
<path d="M4722.5 643L4814.13 768.428L4795.45 781.85L4701 650.422L4722.5 643Z" fill="#E32F2F"/>
<path d="M4480.5 644.5C4468.1 652.1 4460.33 666 4458 672L4629.5 666.5L4721.5 644.5C4721.5 644.5 4696.5 622 4675.5 628C4665.43 630.876 4612.33 640 4603.5 639C4570.5 629 4535.5 627.5 4523 628C4510.5 628.5 4496 635 4480.5 644.5Z" fill="#E32F2F"/>
<path d="M3861 50H3873V559H3841.5L3861 50Z" fill="#E32F2F"/>
<path d="M4209.5 45H4244.5L4226.5 564H4209.5V45Z" fill="#E32F2F"/>
<path d="M4243 45L4301.5 298.5H4291L4235.5 84L4243 45Z" fill="#E32F2F"/>
<path d="M3062.5 414.008C3054.1 414.008 3036.67 415.008 3035 415.508C3035 419.008 3074.5 456 3099.5 457.5C3119.5 458.7 3174.83 438.333 3191 435C3193.17 430.5 3195.9 410.708 3187.5 415.508C3177 421.508 3180.5 414.008 3167.5 418.508C3154.5 423.008 3120 417.008 3109.5 415.508C3099 414.008 3073 414.008 3062.5 414.008Z" fill="#E32F2F"/>
<path d="M3008.5 421.5L3028.5 416L3047 414.5L2987.5 504.5L2976 528L2969 547L2964 565.5L2947 553V532V511L2960.5 489L2976 455L2993 439.5L3008.5 421.5Z" fill="#E32F2F"/>
<path d="M4785.5 507H4907V666.5L4785.5 507Z" fill="#E32F2F"/>
<path d="M3189 416L3210 399L3247.5 385.5L3271 381.5L3295.5 388.5L3307 395.5L3321 395L3332 401.5L3322.5 412L3327.5 423.5L3338 433L3189 431V416Z" fill="#E32F2F"/>
<path d="M1058 330L1080 336.5L1142.11 372.75H1058V330Z" fill="#E32F2F"/>
<rect x="4608" y="495" width="299" height="12" fill="#E32F2F"/>
<rect x="0" y="0" width="4907" height="4" fill="#E32F2F"/>
</g>
<defs>
<clipPath id="clip0_4_12">
<rect width="4907" height="720" fill="white"/>
</clipPath>
</defs>
</svg>
