<svg width="2457" height="720" viewBox="0 0 2457 720" fill="none" xmlns="http://www.w3.org/2000/svg">
<g clip-path="url(#clip0_4_12)">
<path d="M1054.03 94.2972L1314.67 158.564L1299.37 169.276L1056.81 111.123L1054.03 94.2972Z" fill="#E0E32F"/>
<path d="M1364.16 107.104L1401 107.098L1401.01 125.342L1338.39 125.353L1364.16 107.104Z" fill="#E32F2F"/>
<rect x="1060" y="212" width="41" height="12" fill="#E32F2F"/>
<path d="M1059.92 372.81L1415.64 372.81L1415.64 385.26L1237.39 388.879L1059.92 386.066L1059.92 372.81Z" fill="#E32F2F"/>
<path d="M1133 263.5L1400.55 208L1400.55 226.841L1126 279L1133 263.5Z" fill="#E0E32F"/>
<path d="M-7.75476 360L276.331 365.714L276.087 377.954L-0.84839 372.425L-7.75476 360Z" fill="#E0E32F"/>
<rect x="276" y="322" width="6" height="42" fill="#E32F2F"/>
<rect x="1054" y="93" width="6" height="529" fill="#E32F2F"/>
<rect x="1397" y="6" width="6" height="270" fill="#E32F2F"/>
<path d="M308.614 299L643.582 309.815L643.582 328.841L308.12 314.295L308.614 299Z" fill="#E0E32F"/>
<rect x="488" y="262" width="99" height="43" fill="#E32F2F"/>
<rect x="620" y="612" width="93" height="42" fill="#E32F2F"/>
<rect x="759" y="611" width="93" height="43" fill="#E32F2F"/>
<rect x="711" y="642" width="48" height="9" fill="#E32F2F"/>
<rect x="852" y="642" width="32" height="9" fill="#E32F2F"/>
<rect x="884" y="612" width="127" height="42" fill="#E32F2F"/>
<rect x="884" y="577" width="45" height="40" fill="#E32F2F"/>
<rect x="1453" y="491" width="37" height="160" fill="#E32F2F"/>
<rect x="1838" y="623" width="46" height="49" fill="#E32F2F"/>
<rect x="1882" y="574" width="53" height="49" fill="#E32F2F"/>
<rect x="1933" y="525" width="54" height="52" fill="#E32F2F"/>
<rect x="1982" y="512" width="151" height="61" fill="#E32F2F"/>
<path d="M1474.59 481.934L1471.19 490.35L1780.99 667.193L1785.24 660.129L1584.77 535.495L1474.59 481.934Z" fill="#E0E32F"/>
<rect x="956" y="594" width="16" height="18" fill="#E32F2F"/>
<rect x="979" y="583" width="19" height="29" fill="#49E32F"/>
<rect x="523" y="254" width="40" height="8" fill="#32B5FF"/>
<rect x="1393" y="385" width="7" height="248" fill="#E32F2F"/>
<path d="M966.484 59.4409L1040.75 6L1102 42.6452V49.5161C1102 49.5161 1071.38 19.7419 1040.75 25.086C1015.75 29.4481 1001.7 34.2473 987.156 66.3118C972.609 98.3763 966.484 432 966.484 432H955L966.484 59.4409Z" fill="#C4C4C4"/>
<rect x="1009" y="552" width="11" height="58" fill="#C4C4C4"/>
<path d="M1009.56 551.859L1049.42 521.253L1055.42 530.132L1016.79 556.197L1009.56 551.859Z" fill="#C4C4C4"/>
</g>
<defs>
<clipPath id="clip0_4_12">
<rect width="2456.29" height="720" fill="white"/>
</clipPath>
</defs>
</svg>
